<?xml version="1.0" encoding="UTF-8"?>
<svg xmlns="http://www.w3.org/2000/svg" width="91mm" height="61mm" viewBox="0 0 91 61">
  <rect width="91" height="61" fill="#f7f5f2"/>
  <rect x="3" y="3" width="85" height="55" fill="none" stroke="#c4a574" stroke-width="0.15" stroke-dasharray="1 1" opacity="0.4"/>
  <rect x="3" y="3" width="85" height="10" rx="1" fill="#0a1628"/>
  <rect x="3" y="3" width="1.2" height="10" fill="#c4a574"/>
  <text x="45.5" y="8.2" font-family="Cairo, Arial" font-size="2.8" font-weight="800" fill="#ffffff" text-anchor="middle" direction="rtl">الموقع ديالك واجد فـ 10 أيام</text>
  <text x="45.5" y="11.2" font-family="Inter, Arial" font-size="2.1" font-weight="500" fill="#ffffff" opacity="0.55" text-anchor="middle">Votre site est prêt en 10 jours — garanti</text>
  <rect x="8" y="17" width="18" height="18" rx="1" fill="#ffffff" stroke="#ddd8d0" stroke-width="0.2"/>
  <text x="17" y="16" font-family="Cairo, Arial" font-size="1.9" font-weight="700" fill="#141414" text-anchor="middle">شوف أعمالي</text>
  <text x="17" y="37.5" font-family="Inter, Arial" font-size="1.7" fill="#5c6470" text-anchor="middle">Portfolio</text>
  <text x="17" y="28" font-family="Inter, Arial" font-size="3" fill="#141414" text-anchor="middle">[ QR ]</text>
  <text x="83" y="18.5" font-family="Cairo, Arial" font-size="2.1" font-weight="800" fill="#141414" text-anchor="end" direction="rtl">مواقع خدامين · Live</text>
  <text x="83" y="21.2" font-family="Inter, Arial" font-size="1.8" fill="#5c6470" text-anchor="end">Real client websites</text>
  <line x1="32" y1="22.5" x2="83" y2="22.5" stroke="#e0dbd3" stroke-width="0.12"/>
  <circle cx="33.5" cy="25.5" r="0.45" fill="#22c55e"/>
  <text x="35" y="26" font-family="Inter, Arial" font-size="1.85" font-weight="600" fill="#0a1628">seospecialist.ma</text>
  <circle cx="58" cy="25.5" r="0.45" fill="#22c55e"/>
  <text x="59.5" y="26" font-family="Inter, Arial" font-size="1.85" font-weight="600" fill="#0a1628">dec.ma</text>
  <circle cx="33.5" cy="29.5" r="0.45" fill="#22c55e"/>
  <text x="35" y="30" font-family="Inter, Arial" font-size="1.85" font-weight="600" fill="#0a1628">drlarakiortho.com</text>
  <circle cx="58" cy="29.5" r="0.45" fill="#22c55e"/>
  <text x="59.5" y="30" font-family="Inter, Arial" font-size="1.85" font-weight="600" fill="#0a1628">h-cars.ma</text>
  <circle cx="33.5" cy="33.5" r="0.45" fill="#22c55e"/>
  <text x="35" y="34" font-family="Inter, Arial" font-size="1.85" font-weight="600" fill="#0a1628">wetryrecipes.com</text>
  <circle cx="58" cy="33.5" r="0.45" fill="#22c55e"/>
  <text x="59.5" y="34" font-family="Inter, Arial" font-size="1.85" font-weight="600" fill="#0a1628">naqabeauty.store</text>
  <line x1="8" y1="44" x2="83" y2="44" stroke="#e0dbd3" stroke-width="0.12"/>
  <text x="45.5" y="49" font-family="Inter, Arial" font-size="2" font-weight="600" fill="#141414" text-anchor="middle">+212 6 14 09 72 37  ·  abdesamadabdesamad1552@gmail.com  ·  WhatsApp</text>
</svg>
