<svg xmlns="http://www.w3.org/2000/svg" viewBox="0 0 96 96" fill="none">
  <rect width="96" height="96" rx="16" fill="#f5f0eb"/>
  <circle cx="48" cy="36" r="14" stroke="#c5a55a" stroke-width="1.75"/>
  <path d="M48 22v4M48 46v4M34 36h4M58 36h4M38.5 26.5l2.8 2.8M56.7 44.7l2.8 2.8M38.5 45.5l2.8-2.8M56.7 27.3l2.8-2.8" stroke="#c5a55a" stroke-width="1.5" stroke-linecap="round"/>
  <path d="M30 58c4-6 10-9 18-9s14 3 18 9" stroke="#1a1a1a" stroke-width="1.75" stroke-linecap="round"/>
  <path d="M26 66h44l-6 12H32l-6-12z" stroke="#c5a55a" stroke-width="1.75" stroke-linejoin="round"/>
  <path d="M36 66v-4c0-4 3-7 7-7h10c4 0 7 3 7 7v4" stroke="#1a1a1a" stroke-width="1.5" stroke-linecap="round"/>
</svg>
